<?xml version="1.0" encoding="UTF-8"?>
<svg version="1.1" xmlns="http://www.w3.org/2000/svg" width="987" height="215">
<path d="M0 0 C325.71 0 651.42 0 987 0 C987 70.95 987 141.9 987 215 C661.29 215 335.58 215 0 215 C0 144.05 0 73.1 0 0 Z " fill="#FEFEFE" transform="translate(0,0)"/>
<path d="M0 0 C0.7839212 0.27018448 1.56784241 0.54036896 2.3755188 0.81874084 C4.95715182 1.71137825 7.53315463 2.61921555 10.109375 3.52734375 C11.91845797 4.15637047 13.72787165 4.78444679 15.53759766 5.41162109 C19.34726823 6.73413691 23.15451704 8.06332082 26.95996094 9.39794922 C32.8832439 11.47514418 38.81232024 13.53544163 44.7421875 15.59375 C74.97710604 26.09859867 74.97710604 26.09859867 86.859375 30.46484375 C86.859375 37.72484375 86.859375 44.98484375 86.859375 52.46484375 C77.619375 52.46484375 68.379375 52.46484375 58.859375 52.46484375 C58.859375 82.82484375 58.859375 113.18484375 58.859375 144.46484375 C62.489375 144.46484375 66.119375 144.46484375 69.859375 144.46484375 C76.49822203 146.23293617 80.9157792 149.94213588 84.80078125 155.5 C89.54871668 164.31258864 86.859375 176.89805626 86.859375 185.46484375 C21.849375 185.46484375 -43.160625 185.46484375 -110.140625 185.46484375 C-110.140625 160.46484375 -110.140625 160.46484375 -105.140625 151.46484375 C-102.7890625 149.30859375 -102.7890625 149.30859375 -100.515625 147.96484375 C-99.76023437 147.50078125 -99.00484375 147.03671875 -98.2265625 146.55859375 C-92.40017297 143.50355804 -89.95527846 144.46484375 -82.140625 144.46484375 C-82.140625 114.10484375 -82.140625 83.74484375 -82.140625 52.46484375 C-91.380625 52.46484375 -100.620625 52.46484375 -110.140625 52.46484375 C-110.140625 45.20484375 -110.140625 37.94484375 -110.140625 30.46484375 C-100.34903275 26.69884673 -90.51385169 23.21221407 -80.55249023 19.92431641 C-70.58053549 16.62718113 -60.6403279 13.24006525 -50.703125 9.83984375 C-49.51030914 9.43232376 -49.51030914 9.43232376 -48.293396 9.01657104 C-46.72445881 8.48047531 -45.1556908 7.9438842 -43.58709717 7.40678406 C-42.04974332 6.88041517 -40.51202651 6.35510508 -38.97393799 5.83088684 C-35.11304986 4.50940858 -31.27023013 3.15262595 -27.44482422 1.73144531 C-26.68411118 1.45217194 -25.92339813 1.17289856 -25.13963318 0.88516235 C-23.70806799 0.3575837 -22.27973344 -0.17888834 -20.85560608 -0.72622681 C-13.163144 -3.54667081 -7.43203322 -2.65401706 0 0 Z " fill="#171717" transform="translate(121.140625,16.53515625)"/>
<path d="M0 0 C0.85652161 0.29529602 1.71304321 0.59059204 2.59552002 0.89483643 C5.40317487 1.86527106 8.20537893 2.85053752 11.0078125 3.8359375 C12.95779467 4.51296515 14.90815826 5.18889518 16.85888672 5.86376953 C20.90553712 7.26474781 24.95036745 8.67081809 28.99414062 10.08007812 C35.01617381 12.1750934 41.04907242 14.23723085 47.0859375 16.2890625 C48.03393219 16.61139862 48.98192688 16.93373474 49.95864868 17.26583862 C52.72494422 18.20614374 55.49136882 19.14606833 58.2578125 20.0859375 C61.67780258 21.24790113 65.09705369 22.41199439 68.515625 23.578125 C69.26249573 23.83160706 70.00936646 24.08508911 70.77886963 24.34625244 C75.90450669 26.0967846 75.90450669 26.0967846 78.1328125 27.2109375 C78.1328125 29.8509375 78.1328125 32.4909375 78.1328125 35.2109375 C18.4028125 35.2109375 -41.3271875 35.2109375 -102.8671875 35.2109375 C-102.8671875 32.5709375 -102.8671875 29.9309375 -102.8671875 27.2109375 C-91.6683783 23.28529541 -80.46520994 19.37236948 -69.25604248 15.47639465 C-64.04411346 13.66486054 -58.83326791 11.85035665 -53.625 10.02832031 C-48.59046882 8.2676833 -43.5521758 6.51822781 -38.5111084 4.77639771 C-36.5892929 4.11034479 -34.66878341 3.44051097 -32.74963379 2.76681519 C-30.05784036 1.82266861 -27.36166838 0.89222956 -24.6640625 -0.03515625 C-23.4791925 -0.45593948 -23.4791925 -0.45593948 -22.27038574 -0.88522339 C-14.07974617 -3.66749667 -8.0024991 -2.85116738 0 0 Z " fill="#F8F8F8" transform="translate(121.8671875,25.7890625)"/>
<path d="M0 0 C0.67196716 -0.00367669 1.34393432 -0.00735338 2.03626412 -0.01114148 C4.29861304 -0.02219631 6.56091605 -0.02602518 8.82328796 -0.02983093 C10.44106696 -0.0360942 12.05884452 -0.04274088 13.67662048 -0.04974365 C18.0795849 -0.0671654 22.48253845 -0.07770849 26.8855288 -0.08594918 C29.63508497 -0.09109657 32.38463774 -0.0971724 35.13419151 -0.10346031 C43.73323105 -0.12251518 52.33226198 -0.13674601 60.93131858 -0.14507228 C70.86440806 -0.15484852 80.79727493 -0.18117683 90.73028594 -0.22157317 C98.40337895 -0.25171015 106.07640805 -0.26653883 113.7495591 -0.26985329 C118.33455694 -0.27220644 122.91931702 -0.28120113 127.50425148 -0.30631447 C131.81758674 -0.32955819 136.13052709 -0.33384347 140.44390869 -0.32355309 C142.02696736 -0.32305672 143.61004522 -0.32940688 145.19304466 -0.34310913 C147.35492012 -0.36077491 149.51537016 -0.35374993 151.67724609 -0.34057617 C152.88680623 -0.34296453 154.09636637 -0.34535288 155.34257984 -0.34781361 C159.17999333 0.24827915 160.78372053 1.45146199 163.52909851 4.14717102 C165.52909851 7.14717102 165.52909851 7.14717102 165.52909851 23.14717102 C106.45909851 23.14717102 47.38909851 23.14717102 -13.47090149 23.14717102 C-13.47090149 7.14717102 -13.47090149 7.14717102 -8.47090149 1.14717102 C-5.61730519 -0.27962713 -3.19141047 0.01128609 0 0 Z " fill="#FEFEFE" transform="translate(33.47090148925781,169.8528289794922)"/>
<path d="M0 0 C7.70815566 6.16652453 10.92439943 12.48067064 12.8125 22.25 C13.94967215 33.40124931 12.29664427 42.76228309 7 52.625 C1.28614066 59.48163121 -4.54910549 63.29465909 -13.50317383 64.58325195 C-24.03233152 65.36530287 -33.51160877 64.91209136 -42.1875 58.25 C-49.71136138 51.40153012 -51.71006677 43.21194745 -52.5 33.34765625 C-52.95154468 22.88310819 -51.68759583 13.09696426 -44.875 4.75 C-33.12296138 -7.27650237 -14.25529302 -7.82643538 0 0 Z " fill="#151515" transform="translate(479.1875,77.75)"/>
<path d="M0 0 C1.65515625 -0.01933594 1.65515625 -0.01933594 3.34375 -0.0390625 C7.52134894 0.83988777 8.86413793 2.29900513 11.5 5.625 C12.81859886 8.07502372 13.94399867 10.38377742 15 12.9375 C15.29406738 13.62593994 15.58813477 14.31437988 15.89111328 15.02368164 C18.55198252 21.41251693 20.61400491 27.95274286 22.5546875 34.58984375 C23.1954456 37.47539591 23.1954456 37.47539591 24.5 38.625 C24.74121582 37.95557373 24.98243164 37.28614746 25.23095703 36.59643555 C26.35319584 33.4984054 27.48901358 30.40551431 28.625 27.3125 C29.00398437 26.25998047 29.38296875 25.20746094 29.7734375 24.12304688 C36.99175321 4.57344182 36.99175321 4.57344182 43.5 0.625 C46.59375 0.2265625 46.59375 0.2265625 50 0.25 C51.1240625 0.24226563 52.248125 0.23453125 53.40625 0.2265625 C56.93641711 0.68120523 58.04932693 1.07905649 60.5 3.625 C61.14690053 6.30391794 61.51493522 8.61994324 61.73828125 11.33984375 C61.85119255 12.51993263 61.85119255 12.51993263 61.96638489 13.72386169 C62.7770009 23.18414444 62.76526919 32.66615209 62.70581055 42.15405273 C62.68716646 45.24275697 62.68530422 48.33116639 62.68554688 51.41992188 C62.68064389 53.38541929 62.67482098 55.35091467 62.66796875 57.31640625 C62.66685593 58.23909805 62.6657431 59.16178986 62.66459656 60.11244202 C62.61617472 66.50882528 62.61617472 66.50882528 61.5 67.625 C59.33519203 67.7239294 57.16706215 67.754711 55 67.75 C53.8140625 67.75257813 52.628125 67.75515625 51.40625 67.7578125 C48.5 67.625 48.5 67.625 47.5 66.625 C47.37767356 65.15249355 47.3222544 63.67434289 47.29467773 62.19702148 C47.2647599 60.78567177 47.2647599 60.78567177 47.23423767 59.34580994 C47.21752518 58.32290359 47.20081268 57.29999725 47.18359375 56.24609375 C47.16281265 55.20429459 47.14203156 54.16249542 47.12062073 53.08912659 C47.05500943 49.74698753 46.99618669 46.40476715 46.9375 43.0625 C46.89432578 40.80272582 46.85071186 38.54295999 46.80664062 36.28320312 C46.69931633 30.73055579 46.59757188 25.17782679 46.5 19.625 C42.44703932 28.75020815 38.89957215 37.89336119 35.75 47.375 C34.98978793 49.66326374 34.22442732 51.94982557 33.453125 54.234375 C33.12473633 55.22405273 32.79634766 56.21373047 32.45800781 57.23339844 C31.5 59.625 31.5 59.625 29.5 61.625 C26.6796875 61.8203125 26.6796875 61.8203125 23.375 61.75 C22.27929688 61.73195312 21.18359375 61.71390625 20.0546875 61.6953125 C19.21164062 61.67210937 18.36859375 61.64890625 17.5 61.625 C14.42211118 55.87212197 12.36161326 50.33679451 10.625 44.0625 C8.11475009 35.32142213 5.07308862 26.98754783 1.5 18.625 C0.6704085 24.48294039 0.31538644 30.20902997 0.21875 36.12109375 C0.18100417 37.91341177 0.14324333 39.70572947 0.10546875 41.49804688 C0.05157305 44.29839815 -0.00066812 47.09877504 -0.05224609 49.89916992 C-0.10376571 52.61907475 -0.16102982 55.33881459 -0.21875 58.05859375 C-0.23232544 58.9032872 -0.24590088 59.74798065 -0.2598877 60.61827087 C-0.38703306 66.51203306 -0.38703306 66.51203306 -1.5 67.625 C-3.51964199 67.69744053 -5.54167124 67.70877188 -7.5625 67.6875 C-8.66722656 67.67847656 -9.77195312 67.66945313 -10.91015625 67.66015625 C-11.76480469 67.64855469 -12.61945312 67.63695312 -13.5 67.625 C-13.55019954 61.68832572 -13.5860893 55.75178043 -13.60986328 49.81494141 C-13.61979538 47.80385175 -13.63334559 45.79277603 -13.65087891 43.78173828 C-13.73673751 33.66557427 -13.72388417 23.57439366 -12.8046875 13.4921875 C-12.75184601 12.76476349 -12.69900452 12.03733948 -12.64456177 11.28787231 C-12.2342531 7.51878914 -11.52070922 5.65062464 -9.11572266 2.67480469 C-5.8726394 0.1333704 -4.08431333 -0.04771394 0 0 Z " fill="#151515" transform="translate(729.5,73.375)"/>
<path d="M0 0 C1.010625 -0.0103125 2.02125 -0.020625 3.0625 -0.03125 C6.81955441 0.64821729 8.32668643 1.78257235 11 4.5 C12.46171708 6.83874733 13.69268003 9.0301226 14.875 11.5 C15.38208496 12.54136108 15.38208496 12.54136108 15.89941406 13.60375977 C23.21279802 29.07556154 31.55455971 49.08893122 30 66.5 C29 67.5 29 67.5 25.875 67.6328125 C24.59625 67.63023437 23.3175 67.62765625 22 67.625 C20.72125 67.62757813 19.4425 67.63015625 18.125 67.6328125 C15 67.5 15 67.5 14 66.5 C13.53355123 61.84127094 13.29472371 57.17347603 13 52.5 C4.42 52.83 -4.16 53.16 -13 53.5 C-13.144375 55.624375 -13.28875 57.74875 -13.4375 59.9375 C-13.875 66.375 -13.875 66.375 -15 67.5 C-17.53049402 67.57313567 -20.03304837 67.59247527 -22.5625 67.5625 C-23.27341797 67.55798828 -23.98433594 67.55347656 -24.71679688 67.54882812 C-26.47790013 67.53700864 -28.23896036 67.51907263 -30 67.5 C-30.22081425 60.84880709 -29.53810329 55.07190824 -27.9375 48.625 C-27.71562012 47.71806396 -27.49374023 46.81112793 -27.26513672 45.87670898 C-15.56329275 -0.15880911 -15.56329275 -0.15880911 0 0 Z " fill="#141414" transform="translate(675,73.5)"/>
<path d="M0 0 C1.67449219 0.00386719 1.67449219 0.00386719 3.3828125 0.0078125 C5.11917969 0.05035156 5.11917969 0.05035156 6.890625 0.09375 C8.03273438 0.09117188 9.17484375 0.08859375 10.3515625 0.0859375 C18.35987404 0.17798706 25.16858284 1.08963646 32.015625 5.40625 C36.23400842 9.74870352 37.36269931 13.50461502 37.640625 19.46875 C37.49390073 25.37440184 36.02101808 29.17010189 32.140625 33.59375 C29.46335904 36.11352973 28.84970801 36.59375 25.140625 36.59375 C25.140625 37.25375 25.140625 37.91375 25.140625 38.59375 C25.73101562 38.84511719 26.32140625 39.09648438 26.9296875 39.35546875 C34.79730429 43.76189017 39.27476658 54.48956429 42.140625 62.59375 C42.140625 64.24375 42.140625 65.89375 42.140625 67.59375 C37.190625 67.59375 32.240625 67.59375 27.140625 67.59375 C26.66753906 66.62695312 26.19445312 65.66015625 25.70703125 64.6640625 C20.74900798 54.80383812 15.31173577 46.12093694 6.140625 39.59375 C6.45442606 36.69109017 6.71009906 35.04083463 8.765625 32.90625 C11.140625 31.59375 11.140625 31.59375 14.765625 30.59375 C18.39136389 29.91117476 18.39136389 29.91117476 20.140625 26.59375 C20.53189423 24.18524331 20.53189423 24.18524331 20.515625 21.59375 C20.55816406 20.294375 20.55816406 20.294375 20.6015625 18.96875 C20.3523387 16.49986018 20.3523387 16.49986018 18.50244141 14.95703125 C15.45645549 13.19883553 13.38264028 13.29237994 9.890625 13.40625 C8.81296875 13.43332031 7.7353125 13.46039063 6.625 13.48828125 C5.80515625 13.52308594 4.9853125 13.55789062 4.140625 13.59375 C4.14284561 14.25551743 4.14506622 14.91728485 4.14735413 15.59910583 C4.16940465 22.4603522 4.18453062 29.32158857 4.19555664 36.18286133 C4.2005987 38.74666757 4.20743214 41.31047091 4.21606445 43.87426758 C4.22813564 47.55030021 4.23385442 51.22629498 4.23828125 54.90234375 C4.24344254 56.05649277 4.24860382 57.21064178 4.25392151 58.39976501 C4.25399704 59.46078934 4.25407257 60.52181366 4.25415039 61.61499023 C4.256371 62.55430893 4.25859161 63.49362762 4.26087952 64.46141052 C4.140625 66.59375 4.140625 66.59375 3.140625 67.59375 C0.78748945 67.66646741 -1.56771168 67.67745868 -3.921875 67.65625 C-5.85740234 67.64271484 -5.85740234 67.64271484 -7.83203125 67.62890625 C-8.83105469 67.61730469 -9.83007812 67.60570312 -10.859375 67.59375 C-10.97535026 59.59640109 -11.06413011 51.59940491 -11.11843586 43.60142231 C-11.14450341 39.88738057 -11.17984709 36.17391514 -11.23657227 32.46020508 C-11.29099714 28.87455287 -11.32081692 25.28945409 -11.33376122 21.70342064 C-11.34298264 20.33704098 -11.36099081 18.97069081 -11.38802528 17.6045475 C-11.59463757 6.72878308 -11.59463757 6.72878308 -8.69506836 2.25268555 C-5.49051672 0.37796076 -3.6939498 -0.02603874 0 0 Z " fill="#141414" transform="translate(378.859375,73.40625)"/>
<path d="M0 0 C4.00568568 1.8396235 6.84986731 4.10596296 9 8 C9.67906197 11.08255979 9.65556627 14.05679853 9.59375 17.203125 C9.59379028 18.08095642 9.59383057 18.95878784 9.59387207 19.86322021 C9.58852726 21.71568987 9.57098898 23.56815975 9.54199219 25.42041016 C9.50033228 28.22760941 9.50091337 31.03238889 9.5078125 33.83984375 C9.42812156 56.5431589 9.42812156 56.5431589 1.77905273 64.54443359 C-4.36697796 69.57292748 -11.21818985 70.67056791 -18.9375 70.5 C-19.81414307 70.48791504 -20.69078613 70.47583008 -21.59399414 70.46337891 C-29.73621288 70.21345497 -35.70603768 68.8734565 -41.9375 63.4375 C-48.38466033 54.17182409 -47.55876223 41.80490682 -47.5559082 31.03759766 C-47.56252092 28.24115317 -47.61728496 25.44817067 -47.67382812 22.65234375 C-47.68262362 20.85678282 -47.68858223 19.06120526 -47.69140625 17.265625 C-47.7129628 16.43943665 -47.73451935 15.61324829 -47.75672913 14.76202393 C-47.68995488 9.08420925 -46.24696494 6.27530839 -42.28819275 2.20550537 C-41.86308914 1.8076886 -41.43798553 1.40987183 -41 1 C-37.75110516 1.27074124 -36.27588894 1.74365333 -33.85961914 3.98876953 C-31.33150358 8.08247799 -31.44941701 11.27355692 -31.49609375 15.9921875 C-31.48667252 16.85635284 -31.47725128 17.72051819 -31.46754456 18.61087036 C-31.43894004 21.36582247 -31.4358139 24.11991159 -31.4375 26.875 C-31.43388254 29.62282139 -31.42422967 32.37001485 -31.39674377 35.1177063 C-31.38006847 36.82390489 -31.37699008 38.53030943 -31.38975525 40.23654175 C-31.34297843 45.56540325 -30.5078295 49.27121029 -28 54 C-24.63366452 56.98161142 -21.48538094 57.54742276 -16.99609375 57.34375 C-13.51035987 56.74346706 -11.56405059 55.38090412 -9 53 C-6.9810227 47.57838665 -6.74485345 42.71903585 -6.796875 37.03125 C-6.78633112 35.30858616 -6.77457553 33.58592938 -6.76171875 31.86328125 C-6.75140099 29.17722399 -6.75005823 26.49216508 -6.77001953 23.80615234 C-6.78483801 21.19284152 -6.76228666 18.58190826 -6.734375 15.96875 C-6.74974304 15.17376099 -6.76511108 14.37877197 -6.78094482 13.55969238 C-6.68433403 7.97704308 -5.16256461 5.22220797 -1.28668213 1.21594238 C-0.86207703 0.8146814 -0.43747192 0.41342041 0 0 Z " fill="#151515" transform="translate(912,72)"/>
<path d="M0 0 C0.91419708 -0.00622879 1.82839417 -0.01245758 2.77029419 -0.01887512 C3.74956879 -0.00966537 4.72884338 -0.00045563 5.73779297 0.0090332 C6.7484079 0.0085347 7.75902283 0.00803619 8.80026245 0.00752258 C10.93359344 0.00986084 13.0669273 0.01957467 15.20019531 0.03613281 C18.47469577 0.0597763 21.74838482 0.05668546 25.02294922 0.05004883 C27.09456868 0.05562389 29.1661847 0.06273268 31.23779297 0.0715332 C32.22111603 0.0706218 33.20443909 0.06971039 34.21755981 0.06877136 C35.12545258 0.07830338 36.03334534 0.08783539 36.96875 0.09765625 C37.76942902 0.10226364 38.57010803 0.10687103 39.39505005 0.11161804 C41.35498047 0.37231445 41.35498047 0.37231445 43.35498047 2.37231445 C44.0353975 6.85406959 43.51591274 9.60107465 41.03857422 13.2902832 C39.97347738 14.72617782 38.89022456 16.14872177 37.79248047 17.55981445 C37.21691406 18.32720947 36.64134766 19.09460449 36.04833984 19.88525391 C34.81249352 21.52957194 33.56923053 23.16833691 32.31933594 24.80200195 C29.62607868 28.32606514 26.97491651 31.88104738 24.32006836 35.43408203 C22.442298 37.94314157 20.55554907 40.44521951 18.66748047 42.9465332 C15.83353142 46.712403 13.07530785 50.52366946 10.35498047 54.37231445 C11.67888794 54.38633301 11.67888794 54.38633301 13.02954102 54.40063477 C16.31954719 54.44477559 19.60827121 54.50644121 22.89770508 54.57983398 C24.31848239 54.60797459 25.73941425 54.62922354 27.16040039 54.64331055 C29.20913406 54.6648384 31.25602347 54.71152959 33.30419922 54.76293945 C35.150177 54.79436035 35.150177 54.79436035 37.03344727 54.82641602 C40.87428314 55.45766254 42.57023121 56.71929192 45.35498047 59.37231445 C45.03362544 62.3448485 44.82713867 63.92584971 42.6156311 66.01701355 C39.97603309 67.59950025 38.49155978 67.74687788 35.43457031 67.74462891 C34.46031097 67.7508577 33.48605164 67.75708649 32.48226929 67.76350403 C30.91492538 67.74968941 30.91492538 67.74968941 29.31591797 67.7355957 C28.2387149 67.73609421 27.16151184 67.73659271 26.05166626 67.73710632 C23.77710116 67.73476749 21.5025334 67.72505023 19.22802734 67.70849609 C15.73625717 67.68485695 12.24524806 67.68794255 8.75341797 67.69458008 C6.54508006 67.68900493 4.33674538 67.68189609 2.12841797 67.6730957 C1.07947357 67.67400711 0.03052917 67.67491852 -1.05020142 67.67585754 C-2.50213394 67.66155952 -2.50213394 67.66155952 -3.98339844 67.64697266 C-4.83737213 67.64236526 -5.69134583 67.63775787 -6.57119751 67.63301086 C-8.64501953 67.37231445 -8.64501953 67.37231445 -10.64501953 65.37231445 C-11.39383032 60.75074786 -10.73417553 58.03311926 -8.14501953 54.27075195 C-6.99530084 52.74997696 -5.827396 51.24283963 -4.64501953 49.74731445 C-4.02578613 48.93625244 -3.40655273 48.12519043 -2.76855469 47.28955078 C-1.43929355 45.55170663 -0.10260286 43.81952496 1.24072266 42.0925293 C4.1422262 38.35944009 7.00395697 34.59658973 9.86669922 30.83374023 C11.24811912 29.02046702 12.633381 27.21011266 14.02294922 25.40307617 C17.29016416 21.14662116 20.45329963 16.8868585 23.35498047 12.37231445 C22.50266846 12.39849854 21.65035645 12.42468262 20.7722168 12.45166016 C17.5947092 12.53712938 14.41778936 12.59968234 11.23950195 12.64697266 C9.86690945 12.67204062 8.49444945 12.70610528 7.12231445 12.74951172 C5.14447351 12.81048977 3.16563863 12.83592454 1.18701172 12.8605957 C-0.59612427 12.89987183 -0.59612427 12.89987183 -2.4152832 12.93994141 C-6.5382482 12.2153293 -8.00143936 10.5215093 -10.64501953 7.37231445 C-8.52350174 2.24531312 -5.57240973 -0.00437186 0 0 Z " fill="#131313" transform="translate(260.64501953125,73.627685546875)"/>
<path d="M0 0 C0.98742187 -0.00257812 1.97484375 -0.00515625 2.9921875 -0.0078125 C4.5390625 0.00378906 4.5390625 0.00378906 6.1171875 0.015625 C7.62925781 0.00402344 7.62925781 0.00402344 9.171875 -0.0078125 C18.00842927 0.01508013 25.91905329 0.50842273 32.9921875 6.265625 C38.41192313 12.27127799 38.4222783 17.70303093 38.26953125 25.51953125 C37.78746975 32.03075631 35.73557729 35.44114732 31.3046875 40.078125 C26.08918923 43.52232197 21.46497077 45.30616243 15.1796875 45.203125 C11.64213232 44.16266759 10.07635058 43.3050295 7.9921875 40.265625 C7.9921875 37.44458954 8.93132361 36.34226842 10.6796875 34.140625 C13.34164575 31.98228048 15.73703264 31.25632431 18.9921875 30.265625 C21.67678142 27.58103108 21.32185298 26.06822302 21.3671875 22.328125 C21.40972656 20.73677734 21.40972656 20.73677734 21.453125 19.11328125 C21.26966404 16.21720434 21.26966404 16.21720434 19.32275391 14.59936523 C16.4220308 12.93933482 14.55992305 12.95963444 11.2421875 13.078125 C10.25734375 13.10519531 9.2725 13.13226563 8.2578125 13.16015625 C7.51015625 13.19496094 6.7625 13.22976562 5.9921875 13.265625 C5.9767263 14.25827614 5.9767263 14.25827614 5.96095276 15.27098083 C5.85312801 22.13233813 5.73851141 28.99355766 5.61987305 35.85473633 C5.57644684 38.41850921 5.53477765 40.98231246 5.49487305 43.54614258 C5.43735603 47.22226128 5.37360887 50.89822599 5.30859375 54.57421875 C5.29188126 55.72836777 5.27516876 56.88251678 5.25794983 58.07164001 C5.23800461 59.13266434 5.21805939 60.19368866 5.19750977 61.28686523 C5.18196548 62.22618393 5.1664212 63.16550262 5.15040588 64.13328552 C4.9921875 66.265625 4.9921875 66.265625 3.9921875 67.265625 C1.66058695 67.36471802 -0.67411192 67.39533004 -3.0078125 67.390625 C-4.2865625 67.39320313 -5.5653125 67.39578125 -6.8828125 67.3984375 C-10.0078125 67.265625 -10.0078125 67.265625 -11.0078125 66.265625 C-11.11726462 64.48733727 -11.15690145 62.70470788 -11.16894531 60.9230957 C-11.17855286 59.78133377 -11.1881604 58.63957184 -11.19805908 57.46321106 C-11.20230896 56.21851547 -11.20655884 54.97381989 -11.2109375 53.69140625 C-11.21663757 52.41968063 -11.22233765 51.14795502 -11.22821045 49.83769226 C-11.23768044 47.13825906 -11.24456637 44.43893756 -11.24804688 41.73950195 C-11.25351341 38.29062165 -11.27749591 34.84213981 -11.30601883 31.39338398 C-11.32920645 28.09692174 -11.33110012 24.80043861 -11.3359375 21.50390625 C-11.3482843 20.26933182 -11.3606311 19.03475739 -11.37335205 17.76277161 C-11.34509851 6.86539047 -11.34509851 6.86539047 -8.0078125 2.265625 C-4.7451259 0.0905006 -3.77936642 0.00957321 0 0 Z " fill="#191919" transform="translate(817.0078125,73.734375)"/>
<path d="M0 0 C2.34704529 1.54326266 3.61457619 2.49373285 4.7109375 5.125 C4.98614406 7.88246183 4.89400564 10.33321084 4.7109375 13.125 C3.15108541 14.68485209 1.62187652 14.36952344 -0.5390625 14.4375 C-5.15420329 14.41569619 -6.73732768 13.03924395 -10.2890625 10.125 C-13.2991375 9.43923694 -15.11626158 9.67174273 -18.2890625 10.125 C-20.99638453 12.15428014 -20.99638453 12.15428014 -22.2890625 15.125 C-22.34036737 17.67223368 -22.34036737 17.67223368 -21.2890625 20.125 C-18.96132373 21.83708275 -18.96132373 21.83708275 -15.9765625 23.0625 C-14.89761719 23.56652344 -13.81867187 24.07054688 -12.70703125 24.58984375 C-11.57910156 25.09644531 -10.45117188 25.60304688 -9.2890625 26.125 C1.51969467 31.01497827 1.51969467 31.01497827 5.4609375 34.6875 C7.77387677 41.048083 7.94404866 48.70020611 5.5859375 55.125 C2.36526688 60.27807299 -1.82703012 63.66715448 -7.62109375 65.6171875 C-15.26945929 67.07295254 -24.92801967 67.7929027 -32.1015625 64.375 C-33.1534375 63.6325 -34.2053125 62.89 -35.2890625 62.125 C-36.1140625 61.568125 -36.9390625 61.01125 -37.7890625 60.4375 C-40.11296406 56.85481844 -39.60844137 53.27692536 -39.2890625 49.125 C-31.60065486 47.36416288 -31.60065486 47.36416288 -28.484375 49.171875 C-27.94554687 49.63078125 -27.40671875 50.0896875 -26.8515625 50.5625 C-23.19179169 53.65659195 -20.19120952 53.58688792 -15.5234375 53.3984375 C-13.12184037 53.17961939 -13.12184037 53.17961939 -10.2890625 52.125 C-10.19625 50.2378125 -10.19625 50.2378125 -10.1015625 48.3125 C-10.06675781 47.60480469 -10.03195312 46.89710937 -9.99609375 46.16796875 C-10.37824048 43.50313219 -11.26660439 42.86024512 -13.2890625 41.125 C-15.19510339 40.10310982 -15.19510339 40.10310982 -17.30859375 39.29296875 C-18.08396484 38.96876953 -18.85933594 38.64457031 -19.65820312 38.31054688 C-21.27297492 37.65095584 -22.89014226 36.99719601 -24.50976562 36.34960938 C-29.95575282 34.05679922 -33.44391103 31.64622206 -37.2890625 27.125 C-39.45009475 20.64190325 -39.48058466 12.68456612 -36.6015625 6.5 C-26.91890747 -3.44434841 -12.74084215 -6.82037646 0 0 Z " fill="#151515" transform="translate(971.2890625,75.875)"/>
<path d="M0 0 C1.05622559 0.00241699 1.05622559 0.00241699 2.13378906 0.00488281 C7.94475104 0.1413909 12.33984842 1.20239507 17.1875 4.375 C18.4559375 5.179375 18.4559375 5.179375 19.75 6 C22.07076926 9.83431442 21.67325172 14.00323456 21.1875 18.375 C19.63766739 19.92483261 18.15081622 19.65632961 16 19.75 C11.58712374 19.73614482 10.09196672 18.6147021 6.9140625 15.5078125 C3.12347816 13.02077753 -1.52391542 13.59641768 -5.8125 14.375 C-9.74651303 16.10406218 -11.57282437 18.97296346 -13.75 22.625 C-16.24668329 30.41227406 -15.45909428 41.74882748 -12.125 49.1875 C-9.25828074 53.13892384 -6.80827349 55.79981149 -1.859375 56.75 C3.24988152 57.06201567 6.16064684 55.63483351 10.1875 52.375 C10.8475 51.715 11.5075 51.055 12.1875 50.375 C14.53515625 50.14453125 14.53515625 50.14453125 17.25 50.1875 C18.14847656 50.19394531 19.04695312 50.20039062 19.97265625 50.20703125 C22.1875 50.375 22.1875 50.375 23.1875 51.375 C23.76188452 54.475371 23.80343501 57.27992656 23.1875 60.375 C19.63412435 65.43422692 13.98087073 67.77389487 8.1875 69.375 C5.21470277 69.78822283 2.31092505 69.85393956 -0.6875 69.8125 C-1.47688965 69.80275146 -2.2662793 69.79300293 -3.07958984 69.78295898 C-11.9353609 69.51424345 -17.9715852 67.65822661 -24.25 61.1875 C-31.74685068 51.98269745 -32.79305848 39.89310947 -31.8125 28.375 C-30.0199744 19.50455901 -27.16000045 11.54605035 -19.859375 5.8515625 C-13.55979428 1.69191569 -7.56759724 -0.01800951 0 0 Z " fill="#161616" transform="translate(615.8125,72.625)"/>
<path d="M0 0 C2.01124504 -0.01190949 4.01943009 -0.06112889 6.0300293 -0.11157227 C7.94138672 -0.12220703 7.94138672 -0.12220703 9.89135742 -0.13305664 C11.05465576 -0.14651123 12.2179541 -0.15996582 13.41650391 -0.17382812 C17.51104488 0.60125847 19.01080099 2.2219488 21.58276367 5.42553711 C21.64526367 7.55053711 21.64526367 7.55053711 20.58276367 9.42553711 C17.38553708 12.8064164 14.32756515 12.79997177 9.93041992 12.94702148 C9.11444336 12.96055664 8.2984668 12.9740918 7.45776367 12.98803711 C5.82995565 13.02242742 4.20229386 13.06500689 2.57495117 13.11694336 C1.85678223 13.12927002 1.13861328 13.14159668 0.39868164 13.15429688 C-1.66708636 13.27879517 -1.66708636 13.27879517 -3.41723633 15.42553711 C-3.88120326 18.31777214 -3.88120326 18.31777214 -4.04223633 21.55053711 C-4.11700195 22.64624023 -4.19176758 23.74194336 -4.26879883 24.87084961 C-4.3177832 25.71389648 -4.36676758 26.55694336 -4.41723633 27.42553711 C-3.10368164 27.3675293 -1.79012695 27.30952148 -0.43676758 27.24975586 C1.2988739 27.20284663 3.0345539 27.15734772 4.77026367 27.11303711 C5.63458008 27.07114258 6.49889648 27.02924805 7.3894043 26.98608398 C11.98834848 26.89798161 13.93172019 26.92498609 17.69213867 29.81616211 C19.58276367 32.42553711 19.58276367 32.42553711 19.64526367 34.48803711 C18.18127683 37.15766017 17.04967371 38.56480403 14.58276367 40.42553711 C11.48615491 40.92155023 8.45862391 40.80252518 5.33276367 40.67553711 C4.07206055 40.6484668 4.07206055 40.6484668 2.78588867 40.62084961 C0.71768973 40.57384509 -1.34992074 40.50210435 -3.41723633 40.42553711 C-3.27694214 42.57173971 -3.12985469 44.71749929 -2.97973633 46.86303711 C-2.89852539 48.05799805 -2.81731445 49.25295898 -2.73364258 50.48413086 C-2.74067519 53.31123955 -2.74067519 53.31123955 -1.41723633 54.42553711 C0.01258176 54.52185384 1.44660627 54.55751201 2.87963867 54.56616211 C3.75620117 54.58549805 4.63276367 54.60483398 5.53588867 54.62475586 C7.38463217 54.65832243 9.23371734 54.67681687 11.08276367 54.67944336 C18.64035296 54.8893764 18.64035296 54.8893764 21.72338867 57.97241211 C22.33698242 58.78194336 22.95057617 59.59147461 23.58276367 60.42553711 C22.17138504 63.8363688 20.77569059 65.55336861 17.58276367 67.42553711 C13.01215419 68.00222786 8.43097022 67.9406678 3.82885742 67.92651367 C1.58927383 67.92553994 -0.64689608 67.96720437 -2.88598633 68.01147461 C-4.31306254 68.01668116 -5.74015062 68.01936981 -7.16723633 68.01928711 C-8.46145508 68.02637695 -9.75567383 68.0334668 -11.08911133 68.04077148 C-14.41723633 67.42553711 -14.41723633 67.42553711 -16.80786133 65.01342773 C-19.0415255 61.42167407 -19.54722725 59.61783206 -19.57836914 55.41259766 C-19.58797668 54.36778732 -19.59758423 53.32297699 -19.60748291 52.24650574 C-19.61173279 51.11320328 -19.61598267 49.97990082 -19.62036133 48.81225586 C-19.6260614 47.65055374 -19.63176147 46.48885162 -19.63763428 45.29194641 C-19.64709429 42.82973138 -19.65362222 40.36750363 -19.6574707 37.90527344 C-19.66716943 34.13901638 -19.69818141 30.37330646 -19.72973633 26.60717773 C-19.73626688 24.21720702 -19.74151714 21.8272324 -19.74536133 19.43725586 C-19.75770813 18.31002609 -19.77005493 17.18279633 -19.78277588 16.02140808 C-19.77977478 14.96714127 -19.77677368 13.91287445 -19.77368164 12.82666016 C-19.77732727 11.90225632 -19.7809729 10.97785248 -19.784729 10.0254364 C-19.34046952 6.88243521 -18.24093947 5.0001418 -16.41723633 2.42553711 C-11.7749541 -0.94156802 -5.4778274 0.01537026 0 0 Z " fill="#171717" transform="translate(334.417236328125,73.574462890625)"/>
<path d="M0 0 C6.6 0 13.2 0 20 0 C20 30.36 20 60.72 20 92 C13.4 92 6.8 92 0 92 C0 61.64 0 31.28 0 0 Z " fill="#F3F3F3" transform="translate(126,69)"/>
<path d="M0 0 C6.27 0 12.54 0 19 0 C19 30.36 19 60.72 19 92 C12.73 92 6.46 92 0 92 C0 61.64 0 31.28 0 0 Z " fill="#F9F9F9" transform="translate(73,69)"/>
<path d="M0 0 C5.61 0 11.22 0 17 0 C17 30.03 17 60.06 17 91 C11.39 91 5.78 91 0 91 C0 60.97 0 30.94 0 0 Z " fill="#FCFCFC" transform="translate(154,70)"/>
<path d="M0 0 C5.61 0 11.22 0 17 0 C17 30.03 17 60.06 17 91 C11.39 91 5.78 91 0 91 C0 60.97 0 30.94 0 0 Z " fill="#FEFEFE" transform="translate(101,70)"/>
<path d="M0 0 C5.61 0 11.22 0 17 0 C17 30.03 17 60.06 17 91 C11.39 91 5.78 91 0 91 C0 60.97 0 30.94 0 0 Z " fill="#FEFEFE" transform="translate(48,70)"/>
<path d="M0 0 C5.11257317 2.44766251 6.56583567 5.0447369 9 10 C11.50014492 17.58377293 11.22624705 27.50685965 7.8125 34.6875 C5.81163409 38.3652821 3.53068661 40.72702579 0 43 C-3.15625 43.49609375 -3.15625 43.49609375 -6.5 43.4375 C-7.6034375 43.43621094 -8.706875 43.43492187 -9.84375 43.43359375 C-13.93891451 42.87101546 -16.67749226 41.60645793 -19.328125 38.38671875 C-19.63234375 37.82597656 -19.9365625 37.26523438 -20.25 36.6875 C-20.56453125 36.13449219 -20.8790625 35.58148438 -21.203125 35.01171875 C-24.14541489 27.58387907 -24.32465394 17.1633153 -21.9375 9.5625 C-17.48916684 -0.0044631 -10.00767874 -1.63416526 0 0 Z " fill="#FCFCFC" transform="translate(466,86)"/>
<path d="M0 0 C1.51400391 0.01740234 1.51400391 0.01740234 3.05859375 0.03515625 C4.07050781 0.04417969 5.08242188 0.05320312 6.125 0.0625 C7.29869141 0.07990234 7.29869141 0.07990234 8.49609375 0.09765625 C8.51921529 12.4668434 8.53700787 24.83602544 8.54790592 37.20522976 C8.55313516 42.94810687 8.56023355 48.69096926 8.5715332 54.43383789 C8.58236062 59.9710562 8.58837027 65.50826029 8.59097099 71.04548836 C8.59282551 73.16309902 8.59644661 75.28070887 8.60182381 77.39831352 C8.60903231 80.35336899 8.61008477 83.30836496 8.60961914 86.26342773 C8.61321442 87.14815262 8.61680969 88.0328775 8.62051392 88.94441223 C8.61014591 94.98360409 8.61014591 94.98360409 7.49609375 96.09765625 C5.83180324 96.19589562 4.16327444 96.22739256 2.49609375 96.22265625 C1.13484375 96.22652344 1.13484375 96.22652344 -0.25390625 96.23046875 C-2.50390625 96.09765625 -2.50390625 96.09765625 -3.50390625 95.09765625 C-3.60448868 92.18107996 -3.64005836 89.28814679 -3.63330078 86.37109375 C-3.6350531 85.45571838 -3.63680542 84.54034302 -3.63861084 83.597229 C-3.64303086 80.55568576 -3.64009084 77.51420014 -3.63671875 74.47265625 C-3.63739175 72.36897775 -3.63836173 70.26529933 -3.63961792 68.16162109 C-3.6410951 63.74641176 -3.6389397 59.33122262 -3.63427734 54.91601562 C-3.62858005 49.24273064 -3.63185895 43.56949296 -3.63784981 37.89620972 C-3.64145489 33.55037069 -3.64031708 29.20454297 -3.63772202 24.85870361 C-3.6370526 22.76621495 -3.63788168 20.67372528 -3.64020157 18.58123779 C-3.64272723 15.66220359 -3.63888873 12.74324713 -3.63330078 9.82421875 C-3.63532501 8.95041565 -3.63734924 8.07661255 -3.63943481 7.17633057 C-3.6143501 0.14096529 -3.6143501 0.14096529 0 0 Z " fill="#161616" transform="translate(535.50390625,67.90234375)"/>
<path d="M0 0 C3.35158053 2.69126914 4.56327532 6.29565077 6.0625 10.1875 C6.31837891 10.82236328 6.57425781 11.45722656 6.83789062 12.11132812 C8.66271692 16.75079653 9.76096436 21.04385745 11 26 C4.4 26 -2.2 26 -9 26 C-8.26499897 20.11999179 -7.85732045 16.94845558 -5.625 11.875 C-5.18027344 10.85664062 -4.73554687 9.83828125 -4.27734375 8.7890625 C-2.91685034 5.81844387 -1.52493231 2.88934542 0 0 Z " fill="#F3F3F3" transform="translate(674,89)"/>
</svg>
